# xmcd
#
# Track frame offsets:
# 150
# 12520
# 28718
# 38827
# 49790
# 60769
# 74700
# 87285
# 100723
# 112850
# 125943
# 141328
# 161425
# 179527
# 199618
# 211974
# 230118
# 250084
# 271586
# 287682
# 307581
#
# Disc length: 4359 seconds
#
# Revision: 5
# Processed by: cddbd v1.4PL0 Copyright (c) Steve Scherf et al.
# Submitted via: Axialis_AX_CDPlayer 2.6
#
DISCID=24110515
DTITLE=Tom Petty - Playback [Disc 1]
DYEAR=1900
DGENRE=Rock
TTITLE0=Breakdown
TTITLE1=American Girl
TTITLE2=Hometown Blues
TTITLE3=Anything That's Rock 'n' Roll
TTITLE4=I Need To Know
TTITLE5=Listen To Her Heart
TTITLE6=When The Time Comes
TTITLE7=Too Much Ain't Enough
TTITLE8=No Second Thoughts
TTITLE9=Baby's A Rock 'n' Roller
TTITLE10=Refugee
TTITLE11=Here Comes My Girl
TTITLE12=Even The Losers
TTITLE13=Shadow Of A Doubt (A Complex Kid)
TTITLE14=Don't Do Me Like That
TTITLE15=The Waiting
TTITLE16=A Woman In Love
TTITLE17=Something Big
TTITLE18=A Thing About You
TTITLE19=Insider
TTITLE20=You Can Still Change Your Mind
EXTD=Playback Disc 1 ID3G: 17
EXTT0=
EXTT1=
EXTT2=
EXTT3=
EXTT4=
EXTT5=
EXTT6=
EXTT7=
EXTT8=
EXTT9=
EXTT10=
EXTT11=
EXTT12=
EXTT13=
EXTT14=
EXTT15=
EXTT16=
EXTT17=
EXTT18=
EXTT19=
EXTT20=
PLAYORDER=
